<mxfile modified="2021-04-01T21:22:12.956Z" host="app.diagrams.net" agent="5.0 (Windows)" etag="nGVe-yPMte-L5jzZ9Drk" version="14.5.4" type="github">
  <diagram id="C2fSY1v2SiZeoUbDoYyL" name="Page-1">
    <mxGraphModel dx="1102" dy="611" grid="1" gridSize="10" guides="1" tooltips="1" connect="1" arrows="1" fold="1" page="1" pageScale="1" pageWidth="1169" pageHeight="827" math="0" shadow="0">
      <root>
        <mxCell id="0" />
        <mxCell id="1" parent="0" />
        <mxCell id="TjdA8aohcjYyXdcJV-k0-4" value="0" style="ellipse;whiteSpace=wrap;html=1;aspect=fixed;fillColor=#f8cecc;strokeColor=#b85450;" vertex="1" parent="1">
          <mxGeometry x="180" y="190" width="80" height="80" as="geometry" />
        </mxCell>
        <mxCell id="TjdA8aohcjYyXdcJV-k0-5" value="1" style="ellipse;whiteSpace=wrap;html=1;aspect=fixed;fillColor=#dae8fc;strokeColor=#6c8ebf;" vertex="1" parent="1">
          <mxGeometry x="380" y="190" width="80" height="80" as="geometry" />
        </mxCell>
        <mxCell id="TjdA8aohcjYyXdcJV-k0-6" value="2" style="ellipse;whiteSpace=wrap;html=1;aspect=fixed;fillColor=#dae8fc;strokeColor=#6c8ebf;" vertex="1" parent="1">
          <mxGeometry x="545" y="190" width="80" height="80" as="geometry" />
        </mxCell>
        <mxCell id="TjdA8aohcjYyXdcJV-k0-7" value="3" style="ellipse;whiteSpace=wrap;html=1;aspect=fixed;fillColor=#dae8fc;strokeColor=#6c8ebf;" vertex="1" parent="1">
          <mxGeometry x="700" y="190" width="80" height="80" as="geometry" />
        </mxCell>
        <mxCell id="TjdA8aohcjYyXdcJV-k0-10" value="" style="endArrow=classic;html=1;entryX=0.25;entryY=0;entryDx=0;entryDy=0;entryPerimeter=0;exitX=1;exitY=0;exitDx=0;exitDy=0;" edge="1" parent="1" source="TjdA8aohcjYyXdcJV-k0-4" target="TjdA8aohcjYyXdcJV-k0-5">
          <mxGeometry width="50" height="50" relative="1" as="geometry">
            <mxPoint x="220" y="190" as="sourcePoint" />
            <mxPoint x="270" y="140" as="targetPoint" />
            <Array as="points">
              <mxPoint x="300" y="170" />
              <mxPoint x="360" y="170" />
            </Array>
          </mxGeometry>
        </mxCell>
        <mxCell id="TjdA8aohcjYyXdcJV-k0-11" value="Client LTSA diagram" style="text;strokeColor=none;fillColor=none;html=1;fontSize=24;fontStyle=1;verticalAlign=middle;align=center;" vertex="1" parent="1">
          <mxGeometry x="500" width="100" height="40" as="geometry" />
        </mxCell>
        <mxCell id="TjdA8aohcjYyXdcJV-k0-12" value="Buy" style="text;html=1;strokeColor=none;fillColor=none;spacing=5;spacingTop=-20;whiteSpace=wrap;overflow=hidden;rounded=0;" vertex="1" parent="1">
          <mxGeometry x="310" y="150" width="40" height="20" as="geometry" />
        </mxCell>
        <mxCell id="TjdA8aohcjYyXdcJV-k0-14" value="" style="endArrow=classic;html=1;entryX=1;entryY=1;entryDx=0;entryDy=0;exitX=0.275;exitY=0.975;exitDx=0;exitDy=0;exitPerimeter=0;" edge="1" parent="1" source="TjdA8aohcjYyXdcJV-k0-5" target="TjdA8aohcjYyXdcJV-k0-4">
          <mxGeometry width="50" height="50" relative="1" as="geometry">
            <mxPoint x="390" y="270" as="sourcePoint" />
            <mxPoint x="310" y="260" as="targetPoint" />
            <Array as="points">
              <mxPoint x="360" y="280" />
              <mxPoint x="310" y="280" />
              <mxPoint x="280" y="270" />
            </Array>
          </mxGeometry>
        </mxCell>
        <mxCell id="TjdA8aohcjYyXdcJV-k0-15" value="Order processed" style="text;html=1;strokeColor=none;fillColor=none;spacing=5;spacingTop=-20;whiteSpace=wrap;overflow=hidden;rounded=0;" vertex="1" parent="1">
          <mxGeometry x="290" y="300" width="110" height="30" as="geometry" />
        </mxCell>
        <mxCell id="TjdA8aohcjYyXdcJV-k0-16" value="" style="endArrow=classic;html=1;entryX=0;entryY=0;entryDx=0;entryDy=0;exitX=0.738;exitY=0.038;exitDx=0;exitDy=0;exitPerimeter=0;" edge="1" parent="1" source="TjdA8aohcjYyXdcJV-k0-4" target="TjdA8aohcjYyXdcJV-k0-6">
          <mxGeometry width="50" height="50" relative="1" as="geometry">
            <mxPoint x="220" y="190" as="sourcePoint" />
            <mxPoint x="410" y="200" as="targetPoint" />
            <Array as="points">
              <mxPoint x="270" y="160" />
              <mxPoint x="320" y="120" />
              <mxPoint x="510" y="120" />
            </Array>
          </mxGeometry>
        </mxCell>
        <mxCell id="TjdA8aohcjYyXdcJV-k0-17" value="Buy Low" style="text;html=1;strokeColor=none;fillColor=none;spacing=5;spacingTop=-20;whiteSpace=wrap;overflow=hidden;rounded=0;" vertex="1" parent="1">
          <mxGeometry x="370" y="110" width="90" height="20" as="geometry" />
        </mxCell>
        <mxCell id="TjdA8aohcjYyXdcJV-k0-19" value="" style="endArrow=classic;html=1;exitX=0.5;exitY=0;exitDx=0;exitDy=0;" edge="1" parent="1" source="TjdA8aohcjYyXdcJV-k0-4" target="TjdA8aohcjYyXdcJV-k0-7">
          <mxGeometry width="50" height="50" relative="1" as="geometry">
            <mxPoint x="220" y="190" as="sourcePoint" />
            <mxPoint x="556.7157287525379" y="201.71572875253787" as="targetPoint" />
            <Array as="points">
              <mxPoint x="260" y="140" />
              <mxPoint x="330" y="90" />
              <mxPoint x="590" y="90" />
            </Array>
          </mxGeometry>
        </mxCell>
        <mxCell id="TjdA8aohcjYyXdcJV-k0-21" value="4" style="ellipse;whiteSpace=wrap;html=1;aspect=fixed;fillColor=#dae8fc;strokeColor=#6c8ebf;" vertex="1" parent="1">
          <mxGeometry x="860" y="190" width="80" height="80" as="geometry" />
        </mxCell>
        <mxCell id="TjdA8aohcjYyXdcJV-k0-22" value="Sell" style="text;html=1;strokeColor=none;fillColor=none;spacing=5;spacingTop=-20;whiteSpace=wrap;overflow=hidden;rounded=0;" vertex="1" parent="1">
          <mxGeometry x="410" y="80" width="90" height="20" as="geometry" />
        </mxCell>
        <mxCell id="TjdA8aohcjYyXdcJV-k0-23" value="" style="endArrow=classic;html=1;exitX=0.275;exitY=0.975;exitDx=0;exitDy=0;exitPerimeter=0;" edge="1" parent="1">
          <mxGeometry width="50" height="50" relative="1" as="geometry">
            <mxPoint x="585" y="270" as="sourcePoint" />
            <mxPoint x="210" y="272" as="targetPoint" />
            <Array as="points">
              <mxPoint x="563" y="302" />
              <mxPoint x="493" y="322" />
              <mxPoint x="443" y="322" />
              <mxPoint x="320" y="322" />
            </Array>
          </mxGeometry>
        </mxCell>
        <mxCell id="TjdA8aohcjYyXdcJV-k0-25" value="Order processed" style="text;html=1;strokeColor=none;fillColor=none;spacing=5;spacingTop=-20;whiteSpace=wrap;overflow=hidden;rounded=0;" vertex="1" parent="1">
          <mxGeometry x="365" y="340" width="110" height="30" as="geometry" />
        </mxCell>
        <mxCell id="TjdA8aohcjYyXdcJV-k0-26" value="" style="endArrow=classic;html=1;exitX=0.275;exitY=0.975;exitDx=0;exitDy=0;exitPerimeter=0;entryX=0;entryY=1;entryDx=0;entryDy=0;" edge="1" parent="1" target="TjdA8aohcjYyXdcJV-k0-4">
          <mxGeometry width="50" height="50" relative="1" as="geometry">
            <mxPoint x="740" y="270" as="sourcePoint" />
            <mxPoint x="365" y="272" as="targetPoint" />
            <Array as="points">
              <mxPoint x="718" y="302" />
              <mxPoint x="648" y="340" />
              <mxPoint x="590" y="350" />
              <mxPoint x="460" y="350" />
              <mxPoint x="300" y="350" />
              <mxPoint x="240" y="320" />
            </Array>
          </mxGeometry>
        </mxCell>
        <mxCell id="TjdA8aohcjYyXdcJV-k0-27" value="Order processed" style="text;html=1;strokeColor=none;fillColor=none;spacing=5;spacingTop=-20;whiteSpace=wrap;overflow=hidden;rounded=0;" vertex="1" parent="1">
          <mxGeometry x="475" y="370" width="110" height="30" as="geometry" />
        </mxCell>
        <mxCell id="TjdA8aohcjYyXdcJV-k0-28" value="" style="endArrow=classic;html=1;exitX=0.288;exitY=0.05;exitDx=0;exitDy=0;exitPerimeter=0;" edge="1" parent="1" source="TjdA8aohcjYyXdcJV-k0-4" target="TjdA8aohcjYyXdcJV-k0-21">
          <mxGeometry width="50" height="50" relative="1" as="geometry">
            <mxPoint x="200" y="190" as="sourcePoint" />
            <mxPoint x="690.7577892702811" y="202.70726998559576" as="targetPoint" />
            <Array as="points">
              <mxPoint x="240" y="140" />
              <mxPoint x="320" y="60" />
              <mxPoint x="450" y="60" />
              <mxPoint x="590" y="60" />
              <mxPoint x="770" y="90" />
            </Array>
          </mxGeometry>
        </mxCell>
        <mxCell id="TjdA8aohcjYyXdcJV-k0-29" value="Sell high" style="text;html=1;strokeColor=none;fillColor=none;spacing=5;spacingTop=-20;whiteSpace=wrap;overflow=hidden;rounded=0;" vertex="1" parent="1">
          <mxGeometry x="475" y="50" width="90" height="20" as="geometry" />
        </mxCell>
        <mxCell id="TjdA8aohcjYyXdcJV-k0-30" value="" style="endArrow=classic;html=1;exitX=0.275;exitY=0.975;exitDx=0;exitDy=0;exitPerimeter=0;entryX=0.038;entryY=0.65;entryDx=0;entryDy=0;entryPerimeter=0;" edge="1" parent="1" target="TjdA8aohcjYyXdcJV-k0-4">
          <mxGeometry width="50" height="50" relative="1" as="geometry">
            <mxPoint x="898.28" y="271.72" as="sourcePoint" />
            <mxPoint x="349.99572875253807" y="260.00427124746193" as="targetPoint" />
            <Array as="points">
              <mxPoint x="876.28" y="303.72" />
              <mxPoint x="806.28" y="341.72" />
              <mxPoint x="748" y="380" />
              <mxPoint x="610" y="380" />
              <mxPoint x="440" y="380" />
              <mxPoint x="320" y="380" />
              <mxPoint x="270" y="360" />
              <mxPoint x="230" y="330" />
              <mxPoint x="183" y="290" />
            </Array>
          </mxGeometry>
        </mxCell>
        <mxCell id="TjdA8aohcjYyXdcJV-k0-34" value="Order processed" style="text;html=1;strokeColor=none;fillColor=none;spacing=5;spacingTop=-20;whiteSpace=wrap;overflow=hidden;rounded=0;" vertex="1" parent="1">
          <mxGeometry x="560" y="400" width="110" height="30" as="geometry" />
        </mxCell>
      </root>
    </mxGraphModel>
  </diagram>
</mxfile>
